<svg xmlns="http://www.w3.org/2000/svg" width="26.379" height="24.997" viewBox="0 0 26.379 24.997">
  <g id="Group_992" data-name="Group 992" transform="translate(-81.25 202.75)">
    <g id="Group_992-2" data-name="Group 992" transform="translate(82 -202)">
      <path id="Path_1027" data-name="Path 1027" d="M19.764,24.44h0a2.764,2.764,0,0,0,2.764-2.764V13.382A1.383,1.383,0,0,0,21.147,12H17v9.675A2.764,2.764,0,0,0,19.764,24.44Z" transform="translate(2.35 -0.943)" fill="none" stroke="#fff" stroke-linecap="round" stroke-linejoin="round" stroke-width="1.5"/>
      <line id="Line_103" data-name="Line 103" x2="8" transform="translate(6 5.497)" fill="none" stroke="#fff" stroke-linecap="round" stroke-linejoin="round" stroke-width="1.5"/>
      <line id="Line_104" data-name="Line 104" x2="8.293" transform="translate(5.529 10.881)" fill="none" stroke="#fff" stroke-linecap="round" stroke-linejoin="round" stroke-width="1.5"/>
      <line id="Line_105" data-name="Line 105" x2="4.147" transform="translate(5.529 16.668)" fill="none" stroke="#fff" stroke-linecap="round" stroke-linejoin="round" stroke-width="1.5"/>
      <path id="Path_1028" data-name="Path 1028" d="M22.35,15.057V5.382A1.383,1.383,0,0,0,20.968,4H4.382A1.383,1.383,0,0,0,3,5.382v19.35A2.764,2.764,0,0,0,5.764,27.5h19.35" transform="translate(-3 -4)" fill="none" stroke="#fff" stroke-linecap="round" stroke-linejoin="round" stroke-width="1.5"/>
    </g>
  </g>
</svg>
