<svg xmlns="http://www.w3.org/2000/svg" width="25.368" height="25.061" viewBox="0 0 25.368 25.061">
  <g id="Group_44" data-name="Group 44" transform="translate(-507.817 -859.125)">
    <path id="Path_63" data-name="Path 63" d="M20.839,11.541V4.292A1.292,1.292,0,0,0,19.547,3h-2.4a1.292,1.292,0,0,0-1.292,1.292V7.27" transform="translate(509.625 856.875)" fill="none" stroke="#fff" stroke-linecap="round" stroke-linejoin="round" stroke-width="1.5"/>
    <path id="Path_64" data-name="Path 64" d="M3,12.779l9.943-8.522a2.583,2.583,0,0,1,3.362,0l9.945,8.522" transform="translate(505.875 857.06)" fill="none" stroke="#fff" stroke-linecap="round" stroke-linejoin="round" stroke-width="1.5"/>
    <path id="Path_65" data-name="Path 65" d="M4.286,9.612V21.738a2.583,2.583,0,0,0,2.583,2.583h6.089" transform="translate(506.25 858.804)" fill="none" stroke="#fff" stroke-linecap="round" stroke-linejoin="round" stroke-width="1.5"/>
    <line id="Line_19" data-name="Line 19" x1="2.117" y1="2.117" transform="translate(530.008 881.008)" fill="none" stroke="#fff" stroke-linecap="round" stroke-linejoin="round" stroke-width="1.5"/>
    <path id="Path_66" data-name="Path 66" d="M17.81,13A4.811,4.811,0,1,1,13,17.81,4.811,4.811,0,0,1,17.81,13" transform="translate(508.792 859.792)" fill="none" stroke="#fff" stroke-linecap="round" stroke-linejoin="round" stroke-width="1.5"/>
  </g>
</svg>
