<svg xmlns="http://www.w3.org/2000/svg" xmlns:xlink="http://www.w3.org/1999/xlink" width="20" height="20" viewBox="0 0 20 20">
  <defs>
    <clipPath id="clip-path">
      <rect id="Rectangle_70" data-name="Rectangle 70" width="20" height="20" fill="none" stroke="#2575fc" stroke-width="1.85"/>
    </clipPath>
  </defs>
  <g id="Group_66" data-name="Group 66" transform="translate(0 0)">
    <g id="Group_65" data-name="Group 65" transform="translate(0 0)" clip-path="url(#clip-path)">
      <rect id="Rectangle_69" data-name="Rectangle 69" width="9.302" height="9.302" rx="4.226" transform="translate(10 10)" fill="none" stroke="#2575fc" stroke-linecap="round" stroke-linejoin="round" stroke-width="1.5"/>
      <path id="Path_141" data-name="Path 141" d="M10.884,14.831a7.958,7.958,0,0,1-3.4.076l-2.92,1.438c0-1,0-1.944,0-2.647A6.522,6.522,0,0,1,1.585,8.32c0-3.737,3.347-6.735,7.442-6.735s7.441,3,7.441,6.735a6.166,6.166,0,0,1-.564,2.571" transform="translate(-0.887 -0.887)" fill="none" stroke="#2575fc" stroke-linecap="round" stroke-linejoin="round" stroke-width="1.5"/>
      <path id="Path_142" data-name="Path 142" d="M32.719,30.933l-2.584,2.584-1.55-1.551" transform="translate(-16.001 -17.315)" fill="none" stroke="#2575fc" stroke-linecap="round" stroke-linejoin="round" stroke-width="1.5"/>
      <path id="Path_143" data-name="Path 143" d="M15.125,16.067a4.3,4.3,0,0,1-1.244-.173,2.971,2.971,0,0,1-.994-.5,2.294,2.294,0,0,1-.653-.814A2.523,2.523,0,0,1,12,13.467a3.046,3.046,0,0,1,.379-1.479,3.838,3.838,0,0,1,1.094-1.234,2.151,2.151,0,0,1-.825-.731,1.611,1.611,0,0,1-.246-.843,1.874,1.874,0,0,1,.221-.865,3.037,3.037,0,0,1,.564-.77A2.838,2.838,0,0,1,13.959,7a1.986,1.986,0,0,1,.865-.206,2.693,2.693,0,0,1,.452.039,1.316,1.316,0,0,1,.362.106v.948a2.877,2.877,0,0,0-.429-.134A2.252,2.252,0,0,0,14.7,7.7a2.042,2.042,0,0,0-.519.073,1.98,1.98,0,0,0-.508.212,1.313,1.313,0,0,0-.385.34.727.727,0,0,0-.151.446,1.151,1.151,0,0,0,.117.5,1.467,1.467,0,0,0,.318.435,1.65,1.65,0,0,0,.463.306,1.336,1.336,0,0,0,.552.118,2.57,2.57,0,0,0,.4-.039q.24-.039.514-.1t.558-.134q.285-.073.541-.151l-.234.982a7.931,7.931,0,0,0-1.2.173,4.664,4.664,0,0,0-1.183.424,2.866,2.866,0,0,0-.9.731,1.678,1.678,0,0,0-.362,1.094,1.821,1.821,0,0,0,.217.91,1.993,1.993,0,0,0,.558.636,2.307,2.307,0,0,0,.765.368,3.14,3.14,0,0,0,.837.117,6.264,6.264,0,0,0,.938-.073,4.277,4.277,0,0,0,1.127-.374l.368.681a3.185,3.185,0,0,1-.659.363,4.289,4.289,0,0,1-.675.212,4.512,4.512,0,0,1-.608.095q-.279.022-.457.022" transform="translate(-6.717 -3.803)" fill="#67ff66"/>
    </g>
  </g>
</svg>
