<svg id="Group_1061" data-name="Group 1061" xmlns="http://www.w3.org/2000/svg" xmlns:xlink="http://www.w3.org/1999/xlink" width="24" height="24" viewBox="0 0 24 24">
  <defs>
    <clipPath id="clip-path">
      <rect id="Rectangle_473" data-name="Rectangle 473" width="24" height="24" fill="none" stroke="#2575fc" stroke-width="1"/>
    </clipPath>
  </defs>
  <g id="Group_1060" data-name="Group 1060" clip-path="url(#clip-path)">
    <path id="Path_1134" data-name="Path 1134" d="M16.047,12.987A3.987,3.987,0,1,1,12.06,9,3.987,3.987,0,0,1,16.047,12.987Z" fill="none" stroke="#2575fc" stroke-linecap="round" stroke-linejoin="round" stroke-width="1.5"/>
    <path id="Path_1135" data-name="Path 1135" d="M21,9v9a2,2,0,0,1-2,2H5a2,2,0,0,1-2-2V9A2,2,0,0,1,5,7H7L8.462,4.5A1,1,0,0,1,9.326,4h5.3a1,1,0,0,1,.857.484L17,7h2A2,2,0,0,1,21,9Z" fill="none" stroke="#2575fc" stroke-linecap="round" stroke-linejoin="round" stroke-width="1.5"/>
  </g>
</svg>
