<svg id="Group_68" data-name="Group 68" xmlns="http://www.w3.org/2000/svg" xmlns:xlink="http://www.w3.org/1999/xlink" width="20.5" height="19.5" viewBox="0 0 20.5 19.5">
  <defs>
    <clipPath id="clip-path">
      <rect id="Rectangle_71" data-name="Rectangle 71" width="20.5" height="19.5" fill="none" stroke="#2575fc" stroke-width="1"/>
    </clipPath>
  </defs>
  <g id="Group_67" data-name="Group 67" clip-path="url(#clip-path)">
    <path id="Path_144" data-name="Path 144" d="M7.75,16.75H2.45a1.74,1.74,0,0,1-1.7-1.778V2.528A1.74,1.74,0,0,1,2.45.75h13.6a1.74,1.74,0,0,1,1.7,1.778V6.75" fill="none" stroke="#2575fc" stroke-linecap="round" stroke-linejoin="round" stroke-width="1.5"/>
    <line id="Line_29" data-name="Line 29" x2="6" transform="translate(6.75 4.75)" fill="none" stroke="#2575fc" stroke-linecap="round" stroke-linejoin="round" stroke-width="1.5"/>
    <path id="Path_1007" data-name="Path 1007" d="M0,0H8" transform="translate(4.75 8.75)" fill="none" stroke="#2575fc" stroke-linecap="round" stroke-width="1.5"/>
    <line id="Line_31" data-name="Line 31" x2="3" transform="translate(4.75 12.75)" fill="none" stroke="#2575fc" stroke-linecap="round" stroke-linejoin="round" stroke-width="1.5"/>
    <path id="Path_145" data-name="Path 145" d="M15.043,18.457l4.414-4.414a1,1,0,0,0,0-1.414l-1.586-1.586a1,1,0,0,0-1.414,0l-4.414,4.414a1,1,0,0,0-.293.707V18.75h2.586A1,1,0,0,0,15.043,18.457Z" fill="none" stroke="#67ff66" stroke-linecap="round" stroke-linejoin="round" stroke-width="1.5"/>
  </g>
</svg>
