<svg id="Group_1160" data-name="Group 1160" xmlns="http://www.w3.org/2000/svg" xmlns:xlink="http://www.w3.org/1999/xlink" width="24" height="24" viewBox="0 0 24 24">
  <defs>
    <clipPath id="clip-path">
      <rect id="Rectangle_523" data-name="Rectangle 523" width="24" height="24" fill="none" stroke="#6c79ad" stroke-width="1"/>
    </clipPath>
  </defs>
  <g id="Group_1159" data-name="Group 1159" clip-path="url(#clip-path)">
    <path id="Path_1172" data-name="Path 1172" d="M15,5.5c0,1.639,1.788,3.389,2.808,4.254a1.1,1.1,0,0,0,1.383,0C20.212,8.889,22,7.139,22,5.5" fill="none" stroke="#6c79ad" stroke-linecap="round" stroke-linejoin="round" stroke-width="1.5"/>
    <path id="Path_1173" data-name="Path 1173" d="M18.5,5.45a.05.05,0,0,1,.05.05.05.05,0,1,1-.1,0,.05.05,0,0,1,.05-.05" fill="none" stroke="#6c79ad" stroke-linecap="round" stroke-linejoin="round" stroke-width="1.5"/>
    <path id="Path_1174" data-name="Path 1174" d="M15,5.5h0a3.5,3.5,0,0,1,7,0" fill="none" stroke="#6c79ad" stroke-linecap="round" stroke-linejoin="round" stroke-width="1.5"/>
    <line id="Line_243" data-name="Line 243" x2="16.973" transform="translate(3.514 16)" fill="none" stroke="#6c79ad" stroke-linecap="round" stroke-linejoin="round" stroke-width="1.5"/>
    <path id="Path_1175" data-name="Path 1175" d="M12.006,4C9.8,4,8,8.029,8,13s1.792,9,4,9" fill="none" stroke="#6c79ad" stroke-linecap="round" stroke-linejoin="round" stroke-width="1.5"/>
    <line id="Line_244" data-name="Line 244" x1="8.492" transform="translate(3.514 10)" fill="none" stroke="#6c79ad" stroke-linecap="round" stroke-linejoin="round" stroke-width="1.5"/>
    <path id="Path_1176" data-name="Path 1176" d="M21,13a9,9,0,1,1-9-9" fill="none" stroke="#6c79ad" stroke-linecap="round" stroke-linejoin="round" stroke-width="1.5"/>
    <path id="Path_1177" data-name="Path 1177" d="M16,13c0,4.971-1.792,9-4,9" fill="none" stroke="#6c79ad" stroke-linecap="round" stroke-linejoin="round" stroke-width="1.5"/>
  </g>
</svg>
