<svg xmlns="http://www.w3.org/2000/svg" width="13.2" height="13.2" viewBox="0 0 13.2 13.2">
  <g id="Group_1387" data-name="Group 1387" transform="translate(-23.4 -586.567)">
    <g id="Group_1386" data-name="Group 1386">
      <g id="Group_1385" data-name="Group 1385">
        <line id="Line_108" data-name="Line 108" x2="1.333" transform="translate(32 591.167)" fill="none" stroke="#fd6af5" stroke-linecap="round" stroke-linejoin="round" stroke-width="1.2"/>
        <line id="Line_106" data-name="Line 106" x2="10" transform="translate(25 593.834)" fill="none" stroke="#fd6af5" stroke-linecap="round" stroke-linejoin="round" stroke-width="1.2"/>
        <line id="Line_107" data-name="Line 107" x2="10" transform="translate(25 596.5)" fill="none" stroke="#fd6af5" stroke-linecap="round" stroke-linejoin="round" stroke-width="1.2"/>
        <path id="Path_1009" data-name="Path 1009" d="M8.333,4h5.333A1.333,1.333,0,0,1,15,5.333V14a1.333,1.333,0,0,1-1.333,1.333H4.333A1.333,1.333,0,0,1,3,14V5.333A1.333,1.333,0,0,1,4.333,4H5.667" transform="translate(21 583.834)" fill="none" stroke="#fd6af5" stroke-linecap="round" stroke-linejoin="round" stroke-width="1.2"/>
        <path id="Path_1008" data-name="Path 1008" d="M9,3H7.667A.667.667,0,0,0,7,3.667V7l1.333-.667L9.667,7V3.667A.667.667,0,0,0,9,3Z" transform="translate(19.667 584.167)" fill="none" stroke="#fd6af5" stroke-linecap="round" stroke-linejoin="round" stroke-width="1.2"/>
      </g>
    </g>
  </g>
</svg>
