<svg xmlns="http://www.w3.org/2000/svg" xmlns:xlink="http://www.w3.org/1999/xlink" width="262.754" height="217.33" viewBox="0 0 262.754 217.33">
  <defs>
    <linearGradient id="linear-gradient" x1="-0.116" y1="-0.081" x2="0.768" y2="1.449" gradientUnits="objectBoundingBox">
      <stop offset="0" stop-color="#7128f0"/>
      <stop offset="1" stop-color="#2675fc"/>
    </linearGradient>
    <clipPath id="clip-path">
      <rect id="Rectangle_608" data-name="Rectangle 608" width="262.754" height="217.33" fill="url(#linear-gradient)"/>
    </clipPath>
    <clipPath id="clip-path-2">
      <rect id="Rectangle_607" data-name="Rectangle 607" width="262.756" height="217.329" fill="url(#linear-gradient)"/>
    </clipPath>
    <clipPath id="clip-path-3">
      <rect id="Rectangle_604" data-name="Rectangle 604" width="111.755" height="106.336" fill="url(#linear-gradient)"/>
    </clipPath>
    <clipPath id="clip-path-4">
      <rect id="Rectangle_605" data-name="Rectangle 605" width="123.167" height="217.33" fill="url(#linear-gradient)"/>
    </clipPath>
    <clipPath id="clip-path-5">
      <rect id="Rectangle_606" data-name="Rectangle 606" width="123.164" height="217.33" fill="url(#linear-gradient)"/>
    </clipPath>
  </defs>
  <g id="Group_1335" data-name="Group 1335" clip-path="url(#clip-path)">
    <g id="Group_1334" data-name="Group 1334" transform="translate(0 0.001)">
      <g id="Group_1333" data-name="Group 1333" clip-path="url(#clip-path-2)">
        <g id="Group_1326" data-name="Group 1326" transform="translate(75.5 45.765)" style="mix-blend-mode: soft-light;isolation: isolate">
          <g id="Group_1325" data-name="Group 1325">
            <g id="Group_1324" data-name="Group 1324" clip-path="url(#clip-path-3)">
              <path id="Path_1312" data-name="Path 1312" d="M109.89,88.776l0,0-.98-5.653h0v0l-.03-.163,8.811-8.612,19.092-18.667L98.246,50.143l0,0-.081-.012L80.844,15.172,73.483,30.14l-1.659,3.376-8.2,16.67h0l-.036.006L25.028,55.85,53.007,83.042,46.47,121.506,80.97,103.3l34.564,18.1Z" transform="translate(-25.029 -15.171)" fill="url(#linear-gradient)"/>
            </g>
          </g>
        </g>
        <g id="Group_1329" data-name="Group 1329" transform="translate(139.587 -0.001)" style="mix-blend-mode: soft-light;isolation: isolate">
          <g id="Group_1328" data-name="Group 1328" transform="translate(0 0)">
            <g id="Group_1327" data-name="Group 1327" clip-path="url(#clip-path-4)">
              <path id="Path_1313" data-name="Path 1313" d="M169.44,120.1v-.009a29.744,29.744,0,0,0-3.677-2.522l-.009-.006-.075-.042a28.177,28.177,0,0,0-6.075-2.673c-.075-.024-.151-.048-.226-.069-.694-.205-1.391-.383-2.1-.531l-.109-.018a25.589,25.589,0,0,0-6.465-.489c-.184.009-.368.021-.555.033-.676.048-1.351.115-2.033.22h-.006c-.808.127-1.62.253-2.428.459a25.721,25.721,0,0,0-12.018,7.026c-.081.081-.16.163-.241.247a27.744,27.744,0,0,0-2.519,3.017l-.015.018c.027-.133.045-.271.072-.4A99.988,99.988,0,0,0,132.55,113.9,26.553,26.553,0,0,0,148,111.048c.142-.075.284-.151.422-.226.525-.3,1.041-.6,1.544-.938.353-.229.7-.48,1.041-.733s.691-.495,1.023-.769a23.679,23.679,0,0,0,2.042-1.864c.106-.109.19-.232.293-.344a25.755,25.755,0,0,0,6.274-22.054l0-.009a25.766,25.766,0,0,0-22.169,7.33,22.773,22.773,0,0,0-1.71,2.012c-.356.459-.673.935-.989,1.412-.106.16-.214.32-.314.483a24.41,24.41,0,0,0-2.522,5.276q-.131-3.8-.543-7.52c-.006-.033-.006-.066-.009-.1a25.981,25.981,0,0,0,3.017-1.264c.039-.021.078-.045.121-.066A24.194,24.194,0,0,0,147.9,77.742a24.476,24.476,0,0,0-3.092-21.569l0-.006-.009,0a24.489,24.489,0,0,0-15.547,15.273,23.688,23.688,0,0,0-.787,2.986c-.667-2.094-1.385-4.166-2.19-6.2a22.4,22.4,0,0,0,5.095-35.119v0h0A22.8,22.8,0,0,0,119.3,49.422a22.306,22.306,0,0,0-.265,4.371q-1.968-3.226-4.19-6.281a22.71,22.71,0,0,0,9.074-17.581,22.789,22.789,0,0,0-8.814-18.277v0l-.006,0a22.83,22.83,0,0,0-9.505,17.934,22.018,22.018,0,0,0,1.614,8.636,94.065,94.065,0,0,0-7.641-7.176c.094-.024.184-.033.275-.06.712-9.55-2.606-18.775-9.888-24.793S72.988-1.347,63.745,1.151l0,0,0,0c-.706,9.544,2.606,18.769,9.888,24.79.6.486,1.219.908,1.843,1.339l-.051-.048a28.692,28.692,0,0,0,22.09,4.25,88.8,88.8,0,0,1,9.421,9.487,21.912,21.912,0,0,0-19.068-1.3l-.012.006a23.562,23.562,0,0,0-9.529,6.992h0v0A23.333,23.333,0,0,0,89.114,55v0l.024.006a21.539,21.539,0,0,0,3.1.893c.169.039.332.078.5.112a19.651,19.651,0,0,0,5.753.332c.278-.021.552-.051.827-.081.492-.057.974-.133,1.457-.223.323-.057.649-.109.971-.181.609-.142,1.213-.308,1.8-.5v0a23.2,23.2,0,0,0,9.674-6.1A93.94,93.94,0,0,1,120.6,62.342a22.144,22.144,0,0,0-27-2.89l-.021.012a24.231,24.231,0,0,0-3.795,2.8,22.79,22.79,0,0,0,16.157,12.277,21.949,21.949,0,0,0,6.027.238l.036,0a22.439,22.439,0,0,0,2.878-.471l.06-.015a23.328,23.328,0,0,0,8.833-4.169c.932,2.591,1.735,5.237,2.449,7.915l-.021-.021c.579,2.163,1.1,4.347,1.538,6.558l-.024-.03a22.98,22.98,0,0,0-1.906-2.148c-.151-.151-.311-.3-.468-.443a22.653,22.653,0,0,0-1.741-1.481c-.229-.178-.455-.35-.694-.519-.591-.416-1.21-.8-1.849-1.161-.25-.142-.492-.3-.748-.431a22.185,22.185,0,0,0-2.787-1.219,21.391,21.391,0,0,0-2.265-.649c-.287-.069-.576-.124-.866-.181-.462-.087-.923-.16-1.388-.22-.35-.045-.7-.094-1.047-.124-.525-.039-1.047-.054-1.572-.057a23.332,23.332,0,0,0-12.917,3.8l-.081.048a22.826,22.826,0,0,0,14.039,14.673c.356.124.715.208,1.074.317l-.015-.015a22.641,22.641,0,0,0,16.552-1.5c.063.609.1,1.222.154,1.837l.045.045c.259,2.944.437,5.9.437,8.89,0,1.563-.048,3.11-.124,4.652A21.752,21.752,0,0,0,114.022,97.12c-.474-.09-.947-.19-1.424-.247-.38-.048-.76-.063-1.143-.094-.446-.03-.893-.063-1.336-.069-.383,0-.763.012-1.143.027-.446.018-.89.042-1.33.087-.374.036-.745.084-1.116.139-.449.069-.893.151-1.339.244-.353.075-.706.151-1.059.244-.462.118-.917.262-1.373.41-.323.106-.646.205-.962.323-.5.19-.992.407-1.484.627-.256.118-.522.223-.775.35a23.358,23.358,0,0,0-2.163,1.207,23.8,23.8,0,0,0,.817,2.235c.115.275.247.543.371.811.2.431.407.86.633,1.276.181.341.374.676.573,1.008.181.3.374.6.57.89.256.389.516.775.8,1.149.081.109.172.208.256.317a22.334,22.334,0,0,0,5.976,5.33h0a20.344,20.344,0,0,0-2.83.368c-.157.03-.314.057-.471.094a20.525,20.525,0,0,0-2.817.805,21.1,21.1,0,0,0,.425,2.621v.006A19.311,19.311,0,0,0,125.337,132.1c-.7,2.2-1.514,4.344-2.374,6.465l.03.03c-.549,1.345-1.134,2.673-1.744,3.985a19.423,19.423,0,0,0-8.585-10.893,19.754,19.754,0,0,0-17.553-1.155v0a19.74,19.74,0,0,0,9.463,14.826,19.442,19.442,0,0,0,14.169,2.169,89.476,89.476,0,0,1-6.235,9.885,19.366,19.366,0,0,0-7.324-11.43,19.74,19.74,0,0,0-17.333-3.02,20.563,20.563,0,0,0,2.018,8.679,20.694,20.694,0,0,0-7.4-1.759,19.767,19.767,0,0,0,2.4,17.427,19.426,19.426,0,0,0,10.98,7.677c-2.462,2-5.047,3.87-7.722,5.638a16.876,16.876,0,0,0-1.231-8.8,17.344,17.344,0,0,0-11.885-9.885,17.37,17.37,0,0,0-.932,15.439,16.939,16.939,0,0,0,6.673,7.671A102.468,102.468,0,0,1,69.516,190.3a15.339,15.339,0,0,0,.633-7.949A15.772,15.772,0,0,0,61.585,171.2h0v0a15.8,15.8,0,0,0-3.906,13.5,15.394,15.394,0,0,0,4.443,8.2c-1.617.5-3.249.98-4.9,1.412a96.36,96.36,0,0,1-10.941,2.163v6.558a98.733,98.733,0,0,0,12.072-2.341q4.09-1.059,8.024-2.446a16.659,16.659,0,0,0,3.128,12.6,17.017,17.017,0,0,0,13.97,6.489h0a16.96,16.96,0,0,0-2.594-15.179,16.442,16.442,0,0,0-9.246-5.943,99.124,99.124,0,0,0,15-7.8,18.493,18.493,0,0,0,6.471,14.184,18.724,18.724,0,0,0,16.576,3.587,18.69,18.69,0,0,0-6.465-15.671,18.329,18.329,0,0,0-13.6-4.066,98.92,98.92,0,0,0,11.6-9.276,21.038,21.038,0,0,0,28.648,18.878h0l.006,0a21.014,21.014,0,0,0-27.668-19.828,100.228,100.228,0,0,0,11.264-12.8,22.729,22.729,0,0,0,10.974,15.267,23.046,23.046,0,0,0,20.884.576,23.018,23.018,0,0,0-11.385-17.511,22.673,22.673,0,0,0-18.142-1.623,100.593,100.593,0,0,0,6.7-11.43,24.5,24.5,0,0,0,16.347,12.166,23.4,23.4,0,0,0,6.736.341v0l.051-.009a23.855,23.855,0,0,0,3.789-.652c.084-.024.172-.039.256-.06.537-.145,1.068-.311,1.6-.492.275-.094.543-.193.814-.3.459-.175.92-.347,1.37-.549.67-.3,1.327-.624,1.973-.98.284-.16.558-.335.839-.5q.742-.443,1.457-.941c.235-.163.474-.329.706-.5.691-.513,1.367-1.05,2.015-1.632a24.8,24.8,0,0,0-17.439-14.217,22.563,22.563,0,0,0-2.591-.359c-.281-.024-.561-.039-.845-.054q-.878-.045-1.75-.021c-.32.006-.643,0-.962.024q-1.059.068-2.106.235c-.558.084-1.11.208-1.662.332-.163.036-.326.075-.486.115a25.565,25.565,0,0,0-7.982,3.541,99.5,99.5,0,0,0,4.419-12.193l.018-.057.006.006q1.186.846,2.428,1.563l.1.057q1.195.683,2.44,1.246c.094.045.19.084.287.127.775.341,1.56.649,2.359.914.184.063.368.115.549.172.73.223,1.46.431,2.205.594.29.063.585.109.878.163.658.121,1.312.238,1.979.308.416.045.842.054,1.261.078.561.03,1.116.075,1.68.069.585,0,1.17-.063,1.759-.109.416-.033.833-.036,1.252-.09a25.22,25.22,0,0,0,15.17-7.71l0,0,.039-.045a28.671,28.671,0,0,0,5.547-8.277c.018-.036.039-.069.054-.109.115-.265.256-.513.365-.781Zm-43.7,3.946c-.081-.16-.16-.317-.244-.477a19.316,19.316,0,0,0-3.632-4.83c-.039-.039-.081-.075-.124-.112a19.027,19.027,0,0,0-2.477-1.991v0a22.578,22.578,0,0,0,5.032-.655c.1-.024.193-.06.293-.087.718-.187,1.433-.392,2.133-.649.383-.139.754-.32,1.131-.477.41-.175.83-.329,1.234-.525l.012-.006a91.415,91.415,0,0,1-2.235,12.489,20.249,20.249,0,0,0-1.122-2.679M101.31,170.188a19.418,19.418,0,0,0-1.885-9.312,19.673,19.673,0,0,0,9.116,1.617,92.59,92.59,0,0,1-7.231,7.7" transform="translate(-46.274 0.001)" fill="url(#linear-gradient)"/>
            </g>
          </g>
        </g>
        <g id="Group_1332" data-name="Group 1332" transform="translate(0 -0.001)" style="mix-blend-mode: soft-light;isolation: isolate">
          <g id="Group_1331" data-name="Group 1331" transform="translate(0 0)">
            <g id="Group_1330" data-name="Group 1330" clip-path="url(#clip-path-5)">
              <path id="Path_1314" data-name="Path 1314" d="M107.357,192.908l-.036-.012a15.689,15.689,0,0,0,2.715-3.523c.081-.148.157-.3.235-.446a15.323,15.323,0,0,0,.7-1.535c.072-.184.148-.365.214-.555a15.11,15.11,0,0,0,.582-2.133,15.359,15.359,0,0,0,.244-3.7c-.012-.214-.054-.425-.075-.64-.039-.389-.066-.778-.136-1.161s-.169-.751-.265-1.125c-.054-.208-.087-.422-.148-.627a16.109,16.109,0,0,0-.6-1.665l-.009-.024c-.169-.4-.374-.778-.576-1.161-.078-.148-.139-.308-.223-.452-.229-.4-.489-.787-.748-1.173-.081-.115-.145-.235-.226-.35-.166-.232-.359-.443-.537-.667-.2-.25-.389-.51-.6-.751v0h0a15.782,15.782,0,0,0-8.564,11.143,15.606,15.606,0,0,0-.235,1.994c-.006.112,0,.223,0,.338a15.574,15.574,0,0,0,.03,1.68c.006.072.018.142.024.214a15.364,15.364,0,0,0,.271,1.786.789.789,0,0,0,.018.081,15.9,15.9,0,0,0,.519,1.834l.006.021-.066-.027a102.2,102.2,0,0,1-10.44-4.848l.078.081c-.275-.145-.54-.3-.811-.449a17.228,17.228,0,0,0,3.831-3.252c.087-.1.172-.2.256-.3a16.628,16.628,0,0,0,1.149-1.541c.106-.157.214-.308.314-.468a15.866,15.866,0,0,0,1.819-4.054,17.482,17.482,0,0,0-1.629-13.5v0h-.006a17.364,17.364,0,0,0-11.882,9.888,16.783,16.783,0,0,0-.863,2.643c-.009.033-.018.069-.024.106a16.926,16.926,0,0,0-.347,6.048c-2.673-1.765-5.258-3.638-7.719-5.638a19.377,19.377,0,0,0,10.98-7.674,19.75,19.75,0,0,0,2.4-17.427,19.245,19.245,0,0,0-2.045.205c-.4.057-.781.145-1.17.223-.244.051-.489.094-.73.154-.522.127-1.035.281-1.544.446l-.22.072c-.573.2-1.131.413-1.683.655l.015-.033a20.58,20.58,0,0,0,2-8.646,19.745,19.745,0,0,0-17.33,3.02,18.708,18.708,0,0,0-1.919,1.65c-.139.133-.256.281-.389.419-.456.471-.89.953-1.291,1.46-.112.145-.211.3-.32.443a18.632,18.632,0,0,0-1.1,1.647c-.075.127-.145.256-.217.386a20.951,20.951,0,0,0-.929,1.882c-.021.051-.051.1-.072.154l.006.006a20.327,20.327,0,0,0-1.1,3.385,90.211,90.211,0,0,1-6.235-9.885,19.679,19.679,0,0,0,10.739-.606c.184-.063.362-.133.546-.2a18.882,18.882,0,0,0,2.887-1.36,19.757,19.757,0,0,0,9.466-14.833,19.76,19.76,0,0,0-17.556,1.158,18.818,18.818,0,0,0-2.643,1.925c-.166.142-.332.281-.495.428a19.434,19.434,0,0,0-2.2,2.347l-.036.054a19.679,19.679,0,0,0-1.78,2.772c-.039.075-.084.151-.124.226a19.955,19.955,0,0,0-1.306,3.122l-.006.015-.009-.015q-1.127-2.434-2.112-4.95c-.06-.154-.118-.311-.178-.468-.643-1.659-1.243-3.339-1.789-5.044a20.86,20.86,0,0,0,3.6.519c.084.006.166.018.247.021.434.018.869.006,1.3,0,.271,0,.543-.006.817-.021.38-.024.76-.066,1.14-.115.332-.039.658-.081.986-.139.344-.06.682-.127,1.023-.205.374-.084.742-.187,1.113-.3.3-.087.6-.172.9-.275.428-.151.851-.326,1.273-.507.235-.1.471-.19.7-.3a19.261,19.261,0,0,0,1.922-1.05,19.067,19.067,0,0,0,2.724-2.121c.145-.133.293-.259.434-.4a19.1,19.1,0,0,0,2.2-2.549c.051-.072.094-.145.145-.214a19.989,19.989,0,0,0,2.959-6.5l.006-.015v0a21.26,21.26,0,0,0,.594-3.273,20.87,20.87,0,0,0-6.109-1.267h-.006l.015-.009a23.124,23.124,0,0,0,9.985-13.007,22.808,22.808,0,0,0-20.187-2.3,21.96,21.96,0,0,0-5.554,3.065c-.066.048-.13.1-.193.148a22.33,22.33,0,0,0-2.32,2.042l-.078.075a23.085,23.085,0,0,0-3.843,5.249c-.081-1.535-.127-3.08-.127-4.636,0-1.922.1-3.831.2-5.738q.167-2.529.434-5.038a23.361,23.361,0,0,0,3.632,1.421c.145.045.284.1.428.145l-.009-.012a22,22,0,0,0,23.33-7.27l.009-.012q.661-.805,1.249-1.671c.057-.081.109-.163.163-.244.347-.525.679-1.053.983-1.6.127-.229.238-.468.359-.7.223-.437.452-.869.649-1.318a23.313,23.313,0,0,0,.854-2.214c-.664-.434-1.351-.824-2.051-1.189-.25-.13-.507-.244-.76-.368-.443-.211-.893-.413-1.348-.6q-.5-.2-1-.38c-.362-.13-.73-.241-1.1-.35-.41-.124-.817-.25-1.231-.35-.081-.018-.163-.03-.244-.048a23.012,23.012,0,0,0-3.747-.531c-.033,0-.063-.006-.1-.006-.637-.036-1.273-.033-1.916-.015l-.232.009A21.816,21.816,0,0,0,41.7,84.579a98.4,98.4,0,0,1,3.97-14.458,23.293,23.293,0,0,0,8.908,4.19l.006.006.069.012c.615.139,1.234.25,1.861.335.2.027.392.048.588.072.534.06,1.068.109,1.611.13.374.015.751,0,1.131,0,.4-.006.8,0,1.2-.027a20.178,20.178,0,0,0,4.845-.887c.446-.136.878-.3,1.312-.468.284-.109.57-.205.848-.323.576-.241,1.134-.516,1.683-.8.09-.048.184-.094.275-.145a23.313,23.313,0,0,0,9.65-9.952,22.8,22.8,0,0,0-19.466-5.75,22.2,22.2,0,0,0-11.267,5.756c-.027.024-.06.045-.087.072.039-.084.087-.166.127-.25a93.137,93.137,0,0,1,4.86-8.953l-.033-.033c.784-1.3,1.587-2.591,2.434-3.852a22.392,22.392,0,0,0,34.9-2.576l0,0a22.792,22.792,0,0,0-18.386-8.582,22.115,22.115,0,0,0-10.223,2.884,88.543,88.543,0,0,1,9.421-9.49c8.519,1.665,17.207-.03,23.879-5.544,7.285-6.018,10.6-15.246,9.891-24.79l0,0v0c-9.243-2.5-18.929-.977-26.2,5.041S68.886,21.434,69.6,30.984c.09.024.184.036.275.057a94.523,94.523,0,0,0-7.638,7.173,21.987,21.987,0,0,0,1.611-8.63,22.8,22.8,0,0,0-9.505-17.934h-.006v.006A22.789,22.789,0,0,0,45.52,29.934,22.721,22.721,0,0,0,54.6,47.512q-2.222,3.059-4.193,6.281v-.006c.021-.694.024-1.388-.021-2.09a19.711,19.711,0,0,0-.241-2.241l0,0,0-.027A22.782,22.782,0,0,0,38.069,33.1h-.006l0,.006a24.6,24.6,0,0,0-1.913,2.362v0c-.042.057-.072.115-.112.172a23.579,23.579,0,0,0-1.958,3.306c-.036.075-.078.145-.115.22-.25.525-.465,1.062-.676,1.6-.063.169-.13.332-.19.5-.2.549-.371,1.1-.525,1.668-.039.142-.075.287-.112.431a22,22,0,0,0-.492,8.259c0,.03,0,.06.009.09v0c.036.256.042.513.084.769A22.66,22.66,0,0,0,43.155,68.227c-.8,2.03-1.52,4.1-2.187,6.19a23.547,23.547,0,0,0-.784-2.977A24.509,24.509,0,0,0,24.627,56.166,24.73,24.73,0,0,0,20.639,74c.015.106.027.214.045.32a23.615,23.615,0,0,0,.851,3.421A24.246,24.246,0,0,0,34.368,91.913c.027.012.051.03.078.042A26.514,26.514,0,0,0,37.059,93l0,.072q-.416,3.733-.546,7.538v0a24.972,24.972,0,0,0-.962-2.422c-.03-.066-.063-.127-.094-.19-.341-.724-.7-1.436-1.116-2.127-.148-.253-.326-.492-.486-.742-.329-.51-.652-1.026-1.023-1.514a23.766,23.766,0,0,0-1.855-2.184A25.776,25.776,0,0,0,8.805,84.112l-.006.006.006.006A27.318,27.318,0,0,0,9.4,96.112a24.4,24.4,0,0,0,8.22,12.458c.344.278.712.5,1.068.76.449.323.89.667,1.357.956.534.332,1.1.609,1.653.9.311.16.606.347.92.492.7.329,1.43.6,2.16.86.178.063.35.148.531.205a25.783,25.783,0,0,0,2.567.7c.075.015.148.042.226.057a27.147,27.147,0,0,0,2.842.44l.027,0a28.089,28.089,0,0,0,5.891-.036l.024,0q.258,2.584.643,5.125c.03.2.057.4.087.591.271,1.725.573,3.445.935,5.146-.024-.033-.051-.063-.075-.094a27.5,27.5,0,0,0-2.368-2.848c-.259-.271-.519-.546-.787-.808-.356-.344-.718-.682-1.092-1s-.745-.621-1.125-.92c-.32-.247-.627-.507-.959-.739a25.233,25.233,0,0,0-2.169-1.37c-.281-.16-.57-.3-.857-.449q-.878-.452-1.795-.842c-.278-.118-.555-.238-.839-.344a25.533,25.533,0,0,0-2.73-.887,24.642,24.642,0,0,0-3.05-.576A27.242,27.242,0,0,0,0,120.094v.006H0a26.939,26.939,0,0,0,18.13,16.344,26.673,26.673,0,0,0,22.229-4.516A100,100,0,0,0,44.8,144.172a24.3,24.3,0,0,0-18.383-3.813,24.78,24.78,0,0,0-17.43,14.22,24.815,24.815,0,0,0,21.6,6.268,24.5,24.5,0,0,0,16.341-12.163,99.85,99.85,0,0,0,6.7,11.427,22.664,22.664,0,0,0-18.139,1.623A23.019,23.019,0,0,0,24.1,179.249a23.058,23.058,0,0,0,20.881-.576,22.753,22.753,0,0,0,10.98-15.267,99.511,99.511,0,0,0,11.261,12.8,21.01,21.01,0,0,0-27.662,19.831v0l0,0a21.04,21.04,0,0,0,28.648-18.875,99.767,99.767,0,0,0,11.6,9.276A18.323,18.323,0,0,0,66.223,190.5a18.663,18.663,0,0,0-6.458,15.671,18.715,18.715,0,0,0,16.573-3.587A18.487,18.487,0,0,0,82.8,188.4a99.171,99.171,0,0,0,15.007,7.807,16.428,16.428,0,0,0-9.24,5.94,16.965,16.965,0,0,0-2.6,15.179h.009a17.015,17.015,0,0,0,13.967-6.489,16.608,16.608,0,0,0,3.143-12.48c-.006-.036-.006-.075-.012-.115l.012,0q3.923,1.38,8.006,2.443a99.758,99.758,0,0,0,12.072,2.341V196.47a96.825,96.825,0,0,1-10.938-2.16c-1.644-.425-3.264-.9-4.869-1.4M42.136,115c.193.075.377.172.57.241.724.265,1.466.48,2.214.673.072.018.142.048.214.066a22.806,22.806,0,0,0,5.035.655l-.048.039a18.728,18.728,0,0,0-2.425,1.955l-.121.109a19.255,19.255,0,0,0-3.647,4.86c-.075.139-.148.281-.217.422a19.733,19.733,0,0,0-1.137,2.706,92.047,92.047,0,0,1-2.235-12.489c.588.287,1.192.525,1.8.763M60.9,162.495a19.7,19.7,0,0,0,9.1-1.611l.009,0,0,.009a19.426,19.426,0,0,0-1.876,9.3,92.594,92.594,0,0,1-7.234-7.7" transform="translate(0 -0.001)" fill="url(#linear-gradient)"/>
            </g>
          </g>
        </g>
      </g>
    </g>
  </g>
</svg>
