<svg xmlns="http://www.w3.org/2000/svg" xmlns:xlink="http://www.w3.org/1999/xlink" width="19.801" height="21.753" viewBox="0 0 19.801 21.753">
  <defs>
    <clipPath id="clip-path">
      <rect id="Rectangle_662" data-name="Rectangle 662" width="19.801" height="21.753" transform="translate(68.924 5.217)" fill="#67ff66"/>
    </clipPath>
  </defs>
  <g id="Group_1251" data-name="Group 1251" transform="translate(-68.924 -5.217)" clip-path="url(#clip-path)">
    <path id="Path_1271" data-name="Path 1271" d="M76.736,21.7H71.154a2.232,2.232,0,0,0-2.23,2.23v5.582a2.232,2.232,0,0,0,2.23,2.23h5.575a2.237,2.237,0,0,0,2.237-2.23V23.934a2.237,2.237,0,0,0-2.23-2.237M70.2,23.241h4.757v1.122H70.2ZM77.68,30.2H70.2V29.08H77.68Zm0-1.946H70.2V27.134H77.68Zm0-1.946H70.2V25.187H77.68Z" transform="translate(0 -5.606)" fill="#67ff66"/>
    <path id="Path_1272" data-name="Path 1272" d="M85.818,26.97H83.029a.837.837,0,0,1,0-1.673h2.789a1.954,1.954,0,0,0,1.952-1.952v-11.3a2.5,2.5,0,0,0-.733-1.774L84.39,7.625a2.5,2.5,0,0,0-1.774-.735H74.663A1.954,1.954,0,0,0,72.71,8.843v3.9a.837.837,0,0,1-1.673,0v-3.9a3.629,3.629,0,0,1,3.626-3.626h7.954a4.161,4.161,0,0,1,2.956,1.225l2.646,2.646a4.155,4.155,0,0,1,1.225,2.959v11.3a3.629,3.629,0,0,1-3.626,3.626" transform="translate(-0.719 0)" fill="#67ff66"/>
    <path id="Path_1273" data-name="Path 1273" d="M94.333,12.482H90.454a2.513,2.513,0,0,1-2.507-2.507V6.095a.837.837,0,0,1,1.673,0V9.972a.838.838,0,0,0,.837.837h3.879a.837.837,0,0,1,0,1.673" transform="translate(-6.472 -0.014)" fill="#67ff66"/>
  </g>
</svg>
