<?xml version="1.0" encoding="UTF-8"?>
<svg xmlns="http://www.w3.org/2000/svg" xmlns:xlink="http://www.w3.org/1999/xlink" width="50px" height="50px" viewBox="0 0 50 50" version="1.1">
<g id="surface1">
<path style=" stroke:none;fill-rule:evenodd;fill:rgb(94.901961%,79.215686%,18.823529%);fill-opacity:1;" d="M 15.652344 16.496094 L 23.851562 16.496094 Z M 25 28.554688 L 22.808594 27.457031 C 21.636719 29.449219 19.867188 31.300781 17.519531 31.300781 C 17.253906 31.300781 16.996094 31.277344 16.742188 31.234375 C 18.28125 29.839844 19.234375 27.914062 19.234375 25.792969 C 19.234375 25.113281 19.136719 24.449219 18.949219 23.816406 C 19.902344 24.125 20.699219 24.734375 21.203125 25.519531 L 21.210938 25.519531 L 23.851562 25.515625 C 23.851562 22.394531 23.851562 19.433594 23.851562 16.496094 L 15.652344 16.496094 L 15.652344 18.632812 L 21.210938 18.632812 L 21.210938 22.402344 C 20.199219 21.792969 18.996094 21.425781 17.703125 21.390625 C 16.160156 19.398438 13.605469 18.085938 10.722656 18.085938 C 6.03125 18.085938 2.207031 21.550781 2.207031 25.792969 C 2.207031 30.039062 6.03125 33.503906 10.722656 33.503906 C 12.011719 33.503906 13.238281 33.238281 14.335938 32.769531 C 15.285156 33.238281 16.367188 33.503906 17.519531 33.503906 C 21.207031 33.503906 23.054688 31.417969 25 28.554688 Z M 12.21875 31.132812 C 11.347656 30.109375 10.832031 28.832031 10.832031 27.445312 C 10.832031 24.929688 12.539062 22.765625 14.960938 21.851562 C 13.863281 20.886719 12.367188 20.289062 10.71875 20.289062 C 7.371094 20.289062 4.636719 22.761719 4.636719 25.792969 C 4.636719 28.828125 7.371094 31.300781 10.71875 31.300781 C 11.222656 31.300781 11.726562 31.242188 12.21875 31.132812 Z M 16.363281 23.738281 C 16.652344 24.382812 16.800781 25.085938 16.804688 25.792969 C 16.804688 27.550781 15.886719 29.117188 14.464844 30.125 C 13.722656 29.433594 13.261719 28.484375 13.261719 27.445312 C 13.261719 25.6875 14.578125 24.195312 16.363281 23.738281 Z M 34.347656 16.496094 L 26.148438 16.496094 Z M 25 28.554688 L 27.1875 27.457031 C 28.363281 29.449219 30.132812 31.300781 32.480469 31.300781 C 32.746094 31.300781 33.003906 31.277344 33.257812 31.234375 C 31.71875 29.839844 30.765625 27.914062 30.765625 25.792969 C 30.765625 25.113281 30.863281 24.449219 31.050781 23.816406 C 30.097656 24.125 29.300781 24.734375 28.796875 25.519531 L 28.792969 25.519531 L 26.148438 25.515625 C 26.148438 22.394531 26.148438 19.433594 26.148438 16.496094 L 34.347656 16.496094 L 34.347656 18.632812 L 28.789062 18.632812 L 28.789062 22.402344 C 29.800781 21.792969 31.003906 21.425781 32.296875 21.390625 C 33.839844 19.398438 36.394531 18.085938 39.277344 18.085938 C 43.96875 18.085938 47.792969 21.550781 47.792969 25.792969 C 47.792969 30.039062 43.96875 33.503906 39.277344 33.503906 C 37.988281 33.503906 36.761719 33.238281 35.664062 32.769531 C 34.714844 33.238281 33.632812 33.503906 32.480469 33.503906 C 28.796875 33.503906 26.945312 31.417969 25 28.554688 Z M 37.78125 31.132812 C 38.652344 30.109375 39.167969 28.832031 39.167969 27.445312 C 39.167969 24.929688 37.460938 22.765625 35.039062 21.851562 C 36.136719 20.886719 37.632812 20.289062 39.277344 20.289062 C 42.628906 20.289062 45.359375 22.761719 45.359375 25.792969 C 45.359375 28.828125 42.628906 31.300781 39.277344 31.300781 C 38.777344 31.300781 38.273438 31.242188 37.78125 31.132812 Z M 33.640625 23.738281 C 33.347656 24.382812 33.199219 25.085938 33.195312 25.792969 C 33.195312 27.550781 34.113281 29.117188 35.535156 30.125 C 36.277344 29.433594 36.738281 28.484375 36.738281 27.445312 C 36.738281 25.6875 35.421875 24.195312 33.640625 23.738281 Z M 33.640625 23.738281 "/>
</g>
</svg>
