<svg xmlns="http://www.w3.org/2000/svg" xmlns:xlink="http://www.w3.org/1999/xlink" width="43.4" height="43.4" viewBox="0 0 43.4 43.4">
  <defs>
    <clipPath id="clip-path">
      <path id="Path_1241" data-name="Path 1241" d="M107.152,206.2A13.152,13.152,0,0,0,94,219.351v17.1a13.152,13.152,0,0,0,13.15,13.15h17.1a13.152,13.152,0,0,0,13.15-13.148v-17.1A13.152,13.152,0,0,0,124.252,206.2Z" fill="none"/>
    </clipPath>
    <clipPath id="clip-path-2">
      <rect id="Rectangle_480" data-name="Rectangle 480" width="31.356" height="31.356" transform="translate(102.073 212.225)" fill="none"/>
    </clipPath>
  </defs>
  <g id="Group_1187" data-name="Group 1187" transform="translate(2904 -1394.201)">
    <g id="Group_1179" data-name="Group 1179" transform="translate(-2998 1188)" clip-path="url(#clip-path)">
      <rect id="Rectangle_479" data-name="Rectangle 479" width="56.849" height="56.849" transform="translate(78.467 212.748) rotate(-22.855)" fill="#8103ff"/>
    </g>
    <g id="Group_1181" data-name="Group 1181" transform="translate(-2998 1188)" clip-path="url(#clip-path-2)">
      <path id="Path_1242" data-name="Path 1242" d="M111.319,243.579H106.5a4.425,4.425,0,0,1-4.422-4.421V216.647a4.425,4.425,0,0,1,4.422-4.422h17.687a4.425,4.425,0,0,1,4.422,4.422v4.824a1.206,1.206,0,1,1-2.412,0v-4.824a2.014,2.014,0,0,0-2.01-2.01H106.5a2.014,2.014,0,0,0-2.01,2.01v22.511a2.014,2.014,0,0,0,2.01,2.01h4.824a1.206,1.206,0,1,1,0,2.412" fill="#fff"/>
      <path id="Path_1243" data-name="Path 1243" d="M110.515,237.148a3.618,3.618,0,1,1,3.618-3.618,3.618,3.618,0,0,1-3.618,3.618m0-4.824a1.206,1.206,0,1,0,1.206,1.206,1.206,1.206,0,0,0-1.206-1.206" fill="#fff"/>
      <path id="Path_1244" data-name="Path 1244" d="M131.5,236.04l-2.894-.965v-1.688l.563-.37a3.415,3.415,0,0,0,1.463-3.811,3.46,3.46,0,0,0-3.313-2.509h-4.663a3.459,3.459,0,0,0-3.311,2.509,3.414,3.414,0,0,0,1.463,3.811l.563.37v1.688l-2.894.965a2.815,2.815,0,0,0-1.932,2.669v1.4a2.787,2.787,0,0,0,.82,1.978l.675.675a2.787,2.787,0,0,0,1.978.82h9.937a2.787,2.787,0,0,0,1.978-.82l.675-.675a2.787,2.787,0,0,0,.82-1.978v-1.4a2.815,2.815,0,0,0-1.929-2.669m-.482,4.068a.419.419,0,0,1-.113.273l-.675.675a.419.419,0,0,1-.273.113h-9.937a.419.419,0,0,1-.273-.113l-.675-.675a.419.419,0,0,1-.113-.273v-1.4a.417.417,0,0,1,.273-.386l3.73-1.238a1.212,1.212,0,0,0,.82-1.142v-3.214a1.187,1.187,0,0,0-.563-1.013l-1.109-.724a1.02,1.02,0,0,1,.547-1.881h4.663a1.032,1.032,0,0,1,.981.74,1,1,0,0,1-.434,1.142l-1.109.724a1.187,1.187,0,0,0-.563,1.013v3.216a1.212,1.212,0,0,0,.82,1.142l3.73,1.238a.417.417,0,0,1,.273.386Z" fill="#fff"/>
      <path id="Path_1245" data-name="Path 1245" d="M120.966,221.069H108.1a1.206,1.206,0,0,1,0-2.412h12.863a1.206,1.206,0,1,1,0,2.412Z" fill="#fff"/>
      <path id="Path_1246" data-name="Path 1246" d="M114.535,226.7H108.1a1.206,1.206,0,0,1,0-2.412h6.432a1.206,1.206,0,0,1,0,2.412" fill="#fff"/>
    </g>
  </g>
</svg>
