<svg id="Group_985" data-name="Group 985" xmlns="http://www.w3.org/2000/svg" xmlns:xlink="http://www.w3.org/1999/xlink" width="24" height="24" viewBox="0 0 24 24">
  <defs>
    <clipPath id="clip-path">
      <rect id="Rectangle_410" data-name="Rectangle 410" width="24" height="24" fill="none" stroke="#fd6af5" stroke-width="1"/>
    </clipPath>
  </defs>
  <g id="Group_985-2" data-name="Group 985" clip-path="url(#clip-path)">
    <path id="Path_1080" data-name="Path 1080" d="M22,5.657v5.3a1.058,1.058,0,0,1-1.058,1.058H15.125a1.058,1.058,0,0,1-1.057-1.058v-7.4A1.057,1.057,0,0,1,15.125,2.5h3.783a1.059,1.059,0,0,1,.76.322l2.034,2.1A1.057,1.057,0,0,1,22,5.657Z" fill="none" stroke="#fd6af5" stroke-linecap="round" stroke-linejoin="round" stroke-width="1.5"/>
    <path id="Path_1081" data-name="Path 1081" d="M14.85,19.871h1.629A4.071,4.071,0,0,0,20.55,15.8" fill="none" stroke="#fd6af5" stroke-linecap="round" stroke-linejoin="round" stroke-width="1.5"/>
    <path id="Path_1082" data-name="Path 1082" d="M16.071,21.093,14.85,19.872l1.221-1.221" fill="none" stroke="#fd6af5" stroke-linecap="round" stroke-linejoin="round" stroke-width="1.5"/>
    <path id="Path_1083" data-name="Path 1083" d="M9.15,4.129H7.521A4.071,4.071,0,0,0,3.45,8.2" fill="none" stroke="#fd6af5" stroke-linecap="round" stroke-linejoin="round" stroke-width="1.5"/>
    <path id="Path_1084" data-name="Path 1084" d="M7.929,2.907,9.15,4.129,7.929,5.35" fill="none" stroke="#fd6af5" stroke-linecap="round" stroke-linejoin="round" stroke-width="1.5"/>
    <path id="Path_1085" data-name="Path 1085" d="M9.932,15.138v5.3A1.058,1.058,0,0,1,8.874,21.5H3.057A1.058,1.058,0,0,1,2,20.442v-7.4a1.057,1.057,0,0,1,1.057-1.058H6.84a1.059,1.059,0,0,1,.76.322l2.034,2.1A1.057,1.057,0,0,1,9.932,15.138Z" fill="none" stroke="#fd6af5" stroke-linecap="round" stroke-linejoin="round" stroke-width="1.5"/>
  </g>
</svg>
