<svg width="20" height="20" viewBox="0 0 20 20" fill="none" xmlns="http://www.w3.org/2000/svg">
<g clip-path="url(#clip0_1_488)">
<path d="M19.9905 10.2192C19.9905 9.39723 19.9224 8.79735 19.7752 8.17542H10.1992V11.8853H15.82C15.7068 12.8073 15.0948 14.1958 13.735 15.1288L13.7158 15.2531L16.7436 17.5521L16.9533 17.5727C18.8798 15.8286 19.9905 13.2628 19.9905 10.2192Z" fill="#4285F4"/>
<path d="M10.1992 19.9941C12.9529 19.9941 15.2648 19.1055 16.9533 17.5727L13.7349 15.1288C12.8736 15.7176 11.7177 16.1285 10.1992 16.1285C7.50203 16.1285 5.21295 14.3846 4.39689 11.9743L4.27735 11.9842L1.12902 14.3724L1.08789 14.4846C2.76501 17.7502 6.21013 19.9941 10.1992 19.9941Z" fill="#34A853"/>
<path d="M4.39691 11.9743C4.18162 11.3522 4.05707 10.6857 4.05707 9.9971C4.05707 9.30838 4.18162 8.64184 4.3856 8.01978L4.37995 7.88733L1.19216 5.46087L1.08792 5.50939C0.396658 6.86465 0 8.38639 0 9.9971C0 11.6077 0.396658 13.1294 1.08792 14.4846L4.39691 11.9743Z" fill="#FBBC05"/>
<path d="M10.1992 3.86553C12.1144 3.86553 13.4063 4.67637 14.1429 5.354L17.0213 2.59924C15.2534 0.988658 12.9529 0 10.1992 0C6.21013 0 2.76501 2.24373 1.08789 5.50939L4.38558 8.01979C5.21295 5.60945 7.50203 3.86553 10.1992 3.86553Z" fill="#EB4335"/>
</g>
<defs>
<clipPath id="clip0_1_488">
<rect width="20" height="20" fill="white"/>
</clipPath>
</defs>
</svg>
