<svg width="20" height="15" viewBox="0 0 20 15" fill="none" xmlns="http://www.w3.org/2000/svg">
<path d="M17.1591 14.2513H2.84091C2.08772 14.2505 1.36564 13.9509 0.83306 13.4183C0.300478 12.8857 0.000884539 12.1636 0 11.4104V2.84091C0.000884539 2.08772 0.300478 1.36564 0.83306 0.83306C1.36564 0.300478 2.08772 0.000884539 2.84091 0H17.1591C17.9123 0.000884539 18.6344 0.300478 19.1669 0.83306C19.6995 1.36564 19.9991 2.08772 20 2.84091V11.4104C19.9991 12.1636 19.6995 12.8857 19.1669 13.4183C18.6344 13.9509 17.9123 14.2505 17.1591 14.2513ZM2.84091 1.00267C2.35338 1.00267 1.88582 1.19634 1.54108 1.54108C1.19634 1.88582 1.00267 2.35338 1.00267 2.84091V11.4104C1.00267 11.898 1.19634 12.3655 1.54108 12.7103C1.88582 13.055 2.35338 13.2487 2.84091 13.2487H17.1591C17.6466 13.2487 18.1142 13.055 18.4589 12.7103C18.8037 12.3655 18.9973 11.898 18.9973 11.4104V2.84091C18.9973 2.35338 18.8037 1.88582 18.4589 1.54108C18.1142 1.19634 17.6466 1.00267 17.1591 1.00267H2.84091Z" fill="#222222"/>
<path d="M10 9.15776C9.38154 9.15873 8.77961 8.95808 8.28543 8.58623L0.481279 2.68383C0.42614 2.64513 0.379365 2.59571 0.343748 2.53853C0.308131 2.48135 0.284403 2.41758 0.273981 2.35103C0.263559 2.28448 0.266656 2.21651 0.283088 2.15118C0.299521 2.08585 0.328951 2.0245 0.369621 1.9708C0.410291 1.91709 0.461366 1.87214 0.519798 1.83862C0.578229 1.80509 0.642817 1.78369 0.709704 1.77568C0.776591 1.76768 0.844406 1.77323 0.909098 1.79202C0.973789 1.81081 1.03403 1.84244 1.08623 1.88503L8.89037 7.79412C9.21085 8.03336 9.60007 8.16261 10 8.16261C10.3999 8.16261 10.7891 8.03336 11.1096 7.79412L18.9138 1.88503C18.966 1.84244 19.0262 1.81081 19.0909 1.79202C19.1556 1.77323 19.2234 1.76768 19.2903 1.77568C19.3572 1.78369 19.4218 1.80509 19.4802 1.83862C19.5386 1.87214 19.5897 1.91709 19.6304 1.9708C19.671 2.0245 19.7005 2.08585 19.7169 2.15118C19.7333 2.21651 19.7364 2.28448 19.726 2.35103C19.7156 2.41758 19.6919 2.48135 19.6562 2.53853C19.6206 2.59571 19.5739 2.64513 19.5187 2.68383L11.7146 8.58623C11.2204 8.95808 10.6185 9.15873 10 9.15776Z" fill="#222222"/>
<path d="M0.698485 12.8543C0.596805 12.8544 0.497483 12.8237 0.413698 12.766C0.329913 12.7084 0.265626 12.6267 0.229368 12.5317C0.19311 12.4367 0.186595 12.3329 0.210687 12.2342C0.234779 12.1354 0.288339 12.0462 0.36426 11.9786L6.51399 6.49398C6.61327 6.40534 6.7437 6.35977 6.87658 6.36729C7.00946 6.37481 7.13391 6.43481 7.22255 6.53409C7.31119 6.63337 7.35676 6.7638 7.34924 6.89668C7.34172 7.02956 7.28172 7.154 7.18244 7.24265L1.03271 12.7273C0.941382 12.8104 0.821949 12.8558 0.698485 12.8543ZM19.3014 12.8543C19.178 12.8558 19.0585 12.8104 18.9672 12.7273L12.8175 7.24265C12.7182 7.154 12.6582 7.02956 12.6507 6.89668C12.6431 6.7638 12.6887 6.63337 12.7774 6.53409C12.866 6.43481 12.9905 6.37481 13.1233 6.36729C13.2562 6.35977 13.3866 6.40534 13.4859 6.49398L19.6323 11.9786C19.7082 12.0462 19.7618 12.1354 19.7859 12.2342C19.81 12.3329 19.8035 12.4367 19.7672 12.5317C19.7309 12.6267 19.6667 12.7084 19.5829 12.766C19.4991 12.8237 19.3998 12.8544 19.2981 12.8543H19.3014Z" fill="#222222"/>
</svg>
